# xmcd
#
# Track frame offsets:
#	150
#	33910
#	53987
#	70477
#	83052
#	104542
#	116002
#	140845
#	154065
#	174560
#	187252
#	204630
#	236542
#	259992
#	280152
#	294217
#	316325
#
# Disc length: 4336 seconds
#
# Revision: 2
# Processed by: cddbd v1.5.2PL0 Copyright (c) Steve Scherf et al.
# Submitted via: audiograbber 1.83.01
#
DISCID=0410ee11
DTITLE=Crosby, Stills and Nash - Carry On - CD 2
DYEAR=1991
DGENRE=Pop
TTITLE0=Crosby, Stills, Nash and Young - Suite, Judy Blue Eyes
TTITLE1=Crosby, Stills, Nash and Young - Carry On, Questions
TTITLE2=Crosby, Stills, Nash and Young - Horses Through A Rainstorm
TTITLE3=Manassas - Johnny's Garden
TTITLE4=David Crosby - Guinnevere
TTITLE5=Crosby, Stills, Nash and Young - Helplessly Hoping
TTITLE6=Crosby, Stills, Nash and Young - The Lee Shore
TTITLE7=Crosby, Stills, Nash and Young - Taken At All
TTITLE8=Crosby, Stills, Nash and Young - Shadow Captain
TTITLE9=Crosby, Stills, Nash and Young - As I Come Of Age
TTITLE10=David Crosby - Drive My Car
TTITLE11=Steven Stills and Graham Nash - Dear Mr. Fantasy
TTITLE12=Crosby, Stills, Nash and Young - In My Dreams
TTITLE13=Crosby, Stills, Nash and Young - Yours And Mine
TTITLE14=Crosby, Stills, Nash and Young - Haven't We Lost Enough
TTITLE15=Crosby, Stills, Nash and Young - After The Dolphin
TTITLE16=Crosby, Stills, Nash and Young - Find The Cost Of Freedom
EXTD=
EXTT0=
EXTT1=
EXTT2=
EXTT3=
EXTT4=
EXTT5=
EXTT6=
EXTT7=
EXTT8=
EXTT9=
EXTT10=
EXTT11=
EXTT12=
EXTT13=
EXTT14=
EXTT15=
EXTT16=
PLAYORDER=
